<svg width="157" height="61" viewBox="0 0 157 61" fill="none" xmlns="http://www.w3.org/2000/svg">
<g clip-path="url(#clip0_21845_19427)">
<path d="M0 21.9661V15.9065H5.8187V13.5836C5.8187 9.29143 6.91953 5.95865 9.1212 3.58531C11.3229 1.21196 14.5205 0.0505371 18.7142 0.0505371H22.0167V7.37256H18.7142C15.4117 7.37256 13.7342 9.44292 13.7342 13.6341V15.957H20.2344V22.0671H13.7342V45.0936H5.8187V21.9661H0Z" fill="#175FFA"/>
<path d="M23.9038 30.399C23.9038 28.1267 24.3232 26.0058 25.2143 24.0869C26.0531 22.168 27.2063 20.5522 28.6741 19.2897C30.1419 18.0273 31.7669 17.0174 33.6541 16.3104C35.5412 15.6035 37.4284 15.25 39.4728 15.25C41.1502 15.25 42.8801 15.6035 44.6624 16.2599C46.4447 16.9164 47.8601 18.0273 48.8561 19.4917V15.9065H56.7716V45.043H48.8561V41.2558C47.9649 42.6697 46.602 43.7301 44.7672 44.4371C42.9325 45.1945 41.1502 45.548 39.4728 45.548C36.7469 45.548 34.2307 44.9421 31.8718 43.7301C29.5128 42.5182 27.6257 40.7508 26.1055 38.3775C24.6377 36.0546 23.9038 33.4288 23.9038 30.399ZM32.2387 30.399C32.2387 32.6714 33.0774 34.5397 34.7549 36.0041C36.4324 37.4685 38.3719 38.226 40.626 38.226C42.8801 38.226 44.8197 37.519 46.4447 36.1051C48.0698 34.6912 48.9085 32.7724 48.9085 30.399C48.9085 28.0257 48.0698 26.1068 46.4447 24.6929C44.8197 23.279 42.8801 22.572 40.626 22.572C38.3719 22.572 36.4324 23.3295 34.7549 24.7939C33.025 26.2583 32.2387 28.1267 32.2387 30.399Z" fill="#175FFA"/>
<path d="M63.6387 30.2981C63.6387 28.0762 64.058 26.0059 65.0016 24.087C65.8928 22.1681 67.0984 20.6027 68.6186 19.2898C70.1388 17.9769 71.8687 17.0175 73.8607 16.26C75.8527 15.5531 77.8971 15.1996 80.0988 15.1996C82.6674 15.1996 85.0263 15.7046 87.228 16.664C89.4296 17.6234 91.2644 19.0373 92.6797 20.8047L86.4417 25.3494C85.7602 24.4405 84.8166 23.7335 83.7158 23.2286C82.615 22.7236 81.4093 22.4711 80.1512 22.4711C77.8447 22.4711 75.8527 23.1781 74.1752 24.6425C72.4978 26.0564 71.659 27.9248 71.659 30.2476C71.659 32.5704 72.4978 34.4893 74.1752 36.0042C75.8527 37.5191 77.8447 38.2766 80.1512 38.2766C81.4093 38.2766 82.5625 38.0241 83.7158 37.5191C84.8691 37.0142 85.7602 36.3072 86.4417 35.3478L92.7846 39.842C91.3692 41.6598 89.5345 43.0738 87.3328 44.0837C85.1312 45.0936 82.7198 45.5986 80.1512 45.5986C77.268 45.5986 74.5946 44.9926 72.0784 43.7302C69.5622 42.4678 67.5702 40.6499 66.05 38.2766C64.425 35.9537 63.6387 33.2774 63.6387 30.2981Z" fill="#175FFA"/>
<path d="M99.075 38.3775C97.6597 36.0547 96.9258 33.3784 96.9258 30.399C96.9258 27.4197 97.6597 24.7434 99.075 22.4206C100.49 20.0977 102.378 18.3303 104.789 17.1184C107.148 15.9065 109.769 15.3005 112.652 15.3005C117.055 15.3005 120.672 16.7144 123.608 19.4918C126.543 22.2691 128.011 25.9048 128.011 30.4495C128.011 31.2575 127.959 32.1159 127.906 33.0754H104.841C105.103 34.9942 105.995 36.5091 107.515 37.6706C109.035 38.7815 110.922 39.3875 113.176 39.3875C114.801 39.3875 116.269 39.034 117.684 38.428C119.1 37.8221 120.096 36.8626 120.777 35.6507C121.511 36.0547 122.56 36.6101 124.027 37.3676C125.495 38.125 126.386 38.5795 126.753 38.7815C125.443 41.1548 123.556 42.8717 120.987 44.0332C118.418 45.1946 115.64 45.8005 112.652 45.8005C109.769 45.8005 107.148 45.1946 104.789 43.9322C102.43 42.5183 100.49 40.7004 99.075 38.3775ZM104.736 27.8237H120.253C119.991 25.8543 119.152 24.3394 117.789 23.279C116.426 22.1681 114.696 21.6631 112.704 21.6631C110.608 21.6631 108.825 22.2186 107.358 23.3295C105.89 24.3394 104.999 25.8543 104.736 27.8237Z" fill="#175FFA"/>
<path d="M132.205 35.8527H139.596C139.701 36.9132 140.278 37.8221 141.379 38.5291C142.48 39.236 143.738 39.5895 145.153 39.539C146.254 39.4885 147.197 39.1855 147.984 38.6805C148.77 38.1251 149.137 37.4686 149.137 36.6102C149.189 35.2468 148.193 34.3378 146.149 33.8329L142.008 32.8734C140.488 32.4695 139.177 32.015 138.076 31.4595C136.975 30.9041 136.137 30.3991 135.56 29.8436C134.983 29.2882 134.512 28.6822 134.145 27.9752C133.83 27.2683 133.568 26.6118 133.516 26.0564C133.463 25.5009 133.411 24.794 133.411 23.986C133.411 21.6127 134.459 19.5928 136.608 17.8254C138.758 16.058 141.274 15.1996 144.209 15.1996C145.73 15.1996 147.197 15.3511 148.508 15.7046C149.871 16.058 151.129 16.563 152.282 17.2699C153.435 17.9769 154.379 18.9363 155.061 20.1483C155.742 21.3602 156.161 22.7741 156.214 24.39H148.456C148.403 23.4305 147.931 22.6731 147.145 22.2186C146.306 21.7137 145.415 21.4612 144.367 21.4612C143.266 21.4612 142.322 21.6632 141.641 22.1176C140.907 22.5721 140.54 23.2791 140.54 24.289C140.54 24.8445 140.854 25.3494 141.536 25.7534C142.165 26.1574 143.056 26.5108 144.052 26.7128L149.137 27.8743C150.447 28.1772 151.601 28.6317 152.597 29.2377C153.593 29.8436 154.379 30.3991 154.903 31.005C155.427 31.611 155.899 32.318 156.214 33.0249C156.528 33.7319 156.738 34.3883 156.843 34.9438C156.948 35.4993 157 36.0547 157 36.5597C157 38.4281 156.371 40.0945 155.165 41.4579C153.96 42.8718 152.387 43.8817 150.5 44.5382C148.613 45.1946 146.568 45.4976 144.367 45.4976C141.221 45.4976 138.391 44.5887 135.979 42.8718C133.516 41.2054 132.257 38.832 132.205 35.8527Z" fill="#175FFA"/>
<path d="M80.5706 61C72.8124 61 65.5259 58.0712 60.0217 52.8196L65.2638 47.7699C69.3526 51.7086 74.8044 53.88 80.5706 53.88C86.3369 53.88 91.7887 51.7086 95.8775 47.7699L101.12 52.8196C95.6154 58.1217 88.3289 61 80.5706 61Z" fill="#175FFA"/>
</g>
<defs>
<clipPath id="clip0_21845_19427">
<rect width="157" height="61" fill="white"/>
</clipPath>
</defs>
</svg>
